<mxfile host="Electron" modified="2024-05-14T15:23:37.160Z" agent="Mozilla/5.0 (Windows NT 10.0; Win64; x64) AppleWebKit/537.36 (KHTML, like Gecko) draw.io/24.2.5 Chrome/120.0.6099.109 Electron/28.1.0 Safari/537.36" etag="Fg_CSC6JSzr8ImWA1VBS" version="24.2.5" type="device">
  <diagram name="Sayfa -1" id="Ld-wy1DPjEJQbnCZXfgu">
    <mxGraphModel dx="2261" dy="844" grid="1" gridSize="10" guides="1" tooltips="1" connect="1" arrows="1" fold="1" page="1" pageScale="1" pageWidth="827" pageHeight="1169" math="0" shadow="0">
      <root>
        <mxCell id="0" />
        <mxCell id="1" parent="0" />
        <mxCell id="jAtVe_ObESeokS3voXPF-14" style="edgeStyle=orthogonalEdgeStyle;rounded=0;orthogonalLoop=1;jettySize=auto;html=1;exitX=1;exitY=0.5;exitDx=0;exitDy=0;entryX=0.25;entryY=0;entryDx=0;entryDy=0;startArrow=ERmany;startFill=0;endArrow=ERmany;endFill=0;" edge="1" parent="1" source="jAtVe_ObESeokS3voXPF-1" target="jAtVe_ObESeokS3voXPF-5">
          <mxGeometry relative="1" as="geometry" />
        </mxCell>
        <mxCell id="jAtVe_ObESeokS3voXPF-15" value="&lt;b&gt;&lt;font color=&quot;#ff0000&quot; style=&quot;font-size: 13px;&quot;&gt;Sahiptir&lt;/font&gt;&lt;/b&gt;" style="edgeLabel;html=1;align=center;verticalAlign=middle;resizable=0;points=[];" vertex="1" connectable="0" parent="jAtVe_ObESeokS3voXPF-14">
          <mxGeometry x="-0.8953" relative="1" as="geometry">
            <mxPoint x="12" as="offset" />
          </mxGeometry>
        </mxCell>
        <mxCell id="jAtVe_ObESeokS3voXPF-1" value="&lt;b&gt;&lt;font style=&quot;font-size: 15px;&quot;&gt;Restoran&lt;/font&gt;&lt;/b&gt;" style="rounded=0;whiteSpace=wrap;html=1;fillColor=#dae8fc;strokeColor=#6c8ebf;" vertex="1" parent="1">
          <mxGeometry x="100" y="190" width="120" height="60" as="geometry" />
        </mxCell>
        <mxCell id="jAtVe_ObESeokS3voXPF-3" value="Restoran&lt;div style=&quot;font-size: 14px;&quot;&gt;Filtreleme&lt;/div&gt;" style="shape=associativeEntity;whiteSpace=wrap;html=1;align=center;fillColor=#dae8fc;strokeColor=#6c8ebf;fontStyle=1;fontSize=14;" vertex="1" parent="1">
          <mxGeometry x="100" y="370" width="140" height="60" as="geometry" />
        </mxCell>
        <mxCell id="jAtVe_ObESeokS3voXPF-8" style="rounded=0;orthogonalLoop=1;jettySize=auto;html=1;exitX=0.25;exitY=0;exitDx=0;exitDy=0;startArrow=ERmany;startFill=0;endArrow=ERmany;endFill=0;entryX=0.3;entryY=1.033;entryDx=0;entryDy=0;entryPerimeter=0;" edge="1" parent="1" source="jAtVe_ObESeokS3voXPF-4" target="jAtVe_ObESeokS3voXPF-3">
          <mxGeometry relative="1" as="geometry">
            <mxPoint x="140" y="440" as="targetPoint" />
          </mxGeometry>
        </mxCell>
        <mxCell id="jAtVe_ObESeokS3voXPF-12" value="&lt;b&gt;&lt;font color=&quot;#ff0000&quot; style=&quot;font-size: 13px;&quot;&gt;Talep Eder&lt;/font&gt;&lt;/b&gt;" style="edgeLabel;html=1;align=center;verticalAlign=middle;resizable=0;points=[];" vertex="1" connectable="0" parent="jAtVe_ObESeokS3voXPF-8">
          <mxGeometry x="-0.6564" y="4" relative="1" as="geometry">
            <mxPoint x="-6" as="offset" />
          </mxGeometry>
        </mxCell>
        <mxCell id="jAtVe_ObESeokS3voXPF-31" value="&lt;b&gt;&lt;font style=&quot;font-size: 13px;&quot; color=&quot;#ff0000&quot;&gt;Gönderir&lt;/font&gt;&lt;/b&gt;" style="edgeLabel;html=1;align=center;verticalAlign=middle;resizable=0;points=[];" vertex="1" connectable="0" parent="jAtVe_ObESeokS3voXPF-8">
          <mxGeometry x="0.5424" relative="1" as="geometry">
            <mxPoint x="-12" as="offset" />
          </mxGeometry>
        </mxCell>
        <mxCell id="jAtVe_ObESeokS3voXPF-4" value="&lt;b&gt;&lt;font style=&quot;font-size: 15px;&quot;&gt;Müşteri&lt;/font&gt;&lt;/b&gt;" style="rounded=0;whiteSpace=wrap;html=1;fillColor=#dae8fc;strokeColor=#6c8ebf;" vertex="1" parent="1">
          <mxGeometry x="110" y="585" width="120" height="60" as="geometry" />
        </mxCell>
        <mxCell id="jAtVe_ObESeokS3voXPF-9" style="rounded=0;orthogonalLoop=1;jettySize=auto;html=1;exitX=0;exitY=0.5;exitDx=0;exitDy=0;entryX=1;entryY=0.5;entryDx=0;entryDy=0;startArrow=ERoneToMany;startFill=0;endArrow=ERmany;endFill=0;" edge="1" parent="1" source="jAtVe_ObESeokS3voXPF-5" target="jAtVe_ObESeokS3voXPF-4">
          <mxGeometry relative="1" as="geometry" />
        </mxCell>
        <mxCell id="jAtVe_ObESeokS3voXPF-13" value="&lt;b&gt;&lt;font style=&quot;font-size: 13px;&quot; color=&quot;#ff0000&quot;&gt;Seçer&lt;/font&gt;&lt;/b&gt;" style="edgeLabel;html=1;align=center;verticalAlign=middle;resizable=0;points=[];" vertex="1" connectable="0" parent="jAtVe_ObESeokS3voXPF-9">
          <mxGeometry x="0.7231" y="5" relative="1" as="geometry">
            <mxPoint x="22" y="-5" as="offset" />
          </mxGeometry>
        </mxCell>
        <mxCell id="jAtVe_ObESeokS3voXPF-5" value="&lt;b&gt;&lt;font style=&quot;font-size: 15px;&quot;&gt;Filtreler&lt;/font&gt;&lt;/b&gt;" style="rounded=0;whiteSpace=wrap;html=1;fillColor=#dae8fc;strokeColor=#6c8ebf;" vertex="1" parent="1">
          <mxGeometry x="360" y="585" width="120" height="60" as="geometry" />
        </mxCell>
        <mxCell id="jAtVe_ObESeokS3voXPF-7" value="" style="edgeStyle=orthogonalEdgeStyle;rounded=0;orthogonalLoop=1;jettySize=auto;html=1;exitX=0.5;exitY=1;exitDx=0;exitDy=0;entryX=0.429;entryY=-0.067;entryDx=0;entryDy=0;entryPerimeter=0;startArrow=ERmany;startFill=0;endArrow=ERmany;endFill=0;" edge="1" parent="1" source="jAtVe_ObESeokS3voXPF-1" target="jAtVe_ObESeokS3voXPF-3">
          <mxGeometry relative="1" as="geometry">
            <Array as="points">
              <mxPoint x="160" y="308" />
              <mxPoint x="160" y="308" />
            </Array>
          </mxGeometry>
        </mxCell>
        <mxCell id="jAtVe_ObESeokS3voXPF-16" value="&lt;b&gt;&lt;font color=&quot;#ff0000&quot; style=&quot;font-size: 13px;&quot;&gt;Gönderir&lt;/font&gt;&lt;/b&gt;" style="edgeLabel;html=1;align=center;verticalAlign=middle;resizable=0;points=[];" vertex="1" connectable="0" parent="jAtVe_ObESeokS3voXPF-7">
          <mxGeometry x="-0.5516" y="3" relative="1" as="geometry">
            <mxPoint x="-23" y="-6" as="offset" />
          </mxGeometry>
        </mxCell>
        <mxCell id="jAtVe_ObESeokS3voXPF-19" style="edgeStyle=orthogonalEdgeStyle;rounded=0;orthogonalLoop=1;jettySize=auto;html=1;exitX=0.5;exitY=0;exitDx=0;exitDy=0;entryX=0;entryY=0.5;entryDx=0;entryDy=0;startArrow=ERzeroToMany;startFill=0;endArrow=ERmany;endFill=0;" edge="1" parent="1" source="jAtVe_ObESeokS3voXPF-10" target="jAtVe_ObESeokS3voXPF-1">
          <mxGeometry relative="1" as="geometry" />
        </mxCell>
        <mxCell id="jAtVe_ObESeokS3voXPF-20" value="&lt;b&gt;&lt;font color=&quot;#ff0000&quot; style=&quot;font-size: 12px;&quot;&gt;Gönderir&lt;/font&gt;&lt;/b&gt;" style="edgeLabel;html=1;align=center;verticalAlign=middle;resizable=0;points=[];" vertex="1" connectable="0" parent="jAtVe_ObESeokS3voXPF-19">
          <mxGeometry x="-0.8706" y="-1" relative="1" as="geometry">
            <mxPoint x="-11" y="-8" as="offset" />
          </mxGeometry>
        </mxCell>
        <mxCell id="jAtVe_ObESeokS3voXPF-10" value="&lt;b style=&quot;font-size: 14px;&quot;&gt;&lt;font style=&quot;font-size: 14px;&quot;&gt;Restoran&lt;/font&gt;&lt;/b&gt;&lt;div style=&quot;font-size: 14px;&quot;&gt;&lt;b&gt;&lt;font style=&quot;font-size: 14px;&quot;&gt;Değerlendirme&lt;/font&gt;&lt;/b&gt;&lt;/div&gt;" style="shape=associativeEntity;whiteSpace=wrap;html=1;align=center;fillColor=#dae8fc;strokeColor=#6c8ebf;" vertex="1" parent="1">
          <mxGeometry x="-150" y="380" width="140" height="60" as="geometry" />
        </mxCell>
        <mxCell id="jAtVe_ObESeokS3voXPF-17" style="edgeStyle=orthogonalEdgeStyle;rounded=0;orthogonalLoop=1;jettySize=auto;html=1;exitX=0;exitY=0.5;exitDx=0;exitDy=0;entryX=0.514;entryY=1.117;entryDx=0;entryDy=0;entryPerimeter=0;startArrow=ERoneToMany;startFill=0;endArrow=ERzeroToMany;endFill=0;" edge="1" parent="1">
          <mxGeometry relative="1" as="geometry">
            <mxPoint x="110" y="607.98" as="sourcePoint" />
            <mxPoint x="-78.03999999999996" y="440" as="targetPoint" />
          </mxGeometry>
        </mxCell>
        <mxCell id="jAtVe_ObESeokS3voXPF-18" value="&lt;b&gt;&lt;font color=&quot;#ff0000&quot; style=&quot;font-size: 13px;&quot;&gt;Değerlendirir&lt;/font&gt;&lt;/b&gt;" style="edgeLabel;html=1;align=center;verticalAlign=middle;resizable=0;points=[];" vertex="1" connectable="0" parent="jAtVe_ObESeokS3voXPF-17">
          <mxGeometry x="-0.8258" y="1" relative="1" as="geometry">
            <mxPoint x="-49" y="-1" as="offset" />
          </mxGeometry>
        </mxCell>
        <mxCell id="jAtVe_ObESeokS3voXPF-26" style="edgeStyle=orthogonalEdgeStyle;rounded=0;orthogonalLoop=1;jettySize=auto;html=1;exitX=1;exitY=0.5;exitDx=0;exitDy=0;entryX=0.5;entryY=0;entryDx=0;entryDy=0;startArrow=ERzeroToMany;startFill=0;endArrow=ERmany;endFill=0;" edge="1" parent="1" source="jAtVe_ObESeokS3voXPF-23" target="jAtVe_ObESeokS3voXPF-1">
          <mxGeometry relative="1" as="geometry">
            <mxPoint x="530" y="160" as="targetPoint" />
            <Array as="points">
              <mxPoint x="510" y="780" />
              <mxPoint x="510" y="170" />
              <mxPoint x="160" y="170" />
            </Array>
          </mxGeometry>
        </mxCell>
        <mxCell id="jAtVe_ObESeokS3voXPF-28" value="&lt;b&gt;&lt;font color=&quot;#ff0000&quot; style=&quot;font-size: 13px;&quot;&gt;Gönderir&lt;/font&gt;&lt;/b&gt;" style="edgeLabel;html=1;align=center;verticalAlign=middle;resizable=0;points=[];" vertex="1" connectable="0" parent="jAtVe_ObESeokS3voXPF-26">
          <mxGeometry x="-0.971" y="1" relative="1" as="geometry">
            <mxPoint x="32" y="1" as="offset" />
          </mxGeometry>
        </mxCell>
        <mxCell id="jAtVe_ObESeokS3voXPF-23" value="Blog" style="shape=associativeEntity;whiteSpace=wrap;html=1;align=center;fillColor=#dae8fc;strokeColor=#6c8ebf;fontStyle=1;fontSize=14;" vertex="1" parent="1">
          <mxGeometry x="110" y="750" width="140" height="60" as="geometry" />
        </mxCell>
        <mxCell id="jAtVe_ObESeokS3voXPF-24" style="edgeStyle=orthogonalEdgeStyle;rounded=0;orthogonalLoop=1;jettySize=auto;html=1;exitX=0.5;exitY=1;exitDx=0;exitDy=0;startArrow=ERoneToMany;startFill=0;endArrow=ERmany;endFill=0;entryX=0.429;entryY=0;entryDx=0;entryDy=0;entryPerimeter=0;" edge="1" parent="1" source="jAtVe_ObESeokS3voXPF-4" target="jAtVe_ObESeokS3voXPF-23">
          <mxGeometry relative="1" as="geometry">
            <mxPoint x="170" y="740" as="targetPoint" />
          </mxGeometry>
        </mxCell>
        <mxCell id="jAtVe_ObESeokS3voXPF-25" value="&lt;b&gt;&lt;font color=&quot;#ff0000&quot; style=&quot;font-size: 12px;&quot;&gt;Yazar&lt;/font&gt;&lt;/b&gt;" style="edgeLabel;html=1;align=center;verticalAlign=middle;resizable=0;points=[];" vertex="1" connectable="0" parent="jAtVe_ObESeokS3voXPF-24">
          <mxGeometry x="-0.4135" y="1" relative="1" as="geometry">
            <mxPoint x="-11" y="-8" as="offset" />
          </mxGeometry>
        </mxCell>
        <mxCell id="jAtVe_ObESeokS3voXPF-32" value="&lt;b&gt;&lt;font style=&quot;font-size: 12px;&quot; color=&quot;#ff0000&quot;&gt;Gönderir&lt;/font&gt;&lt;/b&gt;" style="edgeLabel;html=1;align=center;verticalAlign=middle;resizable=0;points=[];" vertex="1" connectable="0" parent="jAtVe_ObESeokS3voXPF-24">
          <mxGeometry x="0.5046" y="-1" relative="1" as="geometry">
            <mxPoint y="1" as="offset" />
          </mxGeometry>
        </mxCell>
      </root>
    </mxGraphModel>
  </diagram>
</mxfile>
